# AST/ASF file generated using VICON BodyLanguage
# -----------------------------------------------
:version 1.10
:name VICON
:units
  mass 1.0
  length 0.45
  angle deg
:documentation
   .ast/.asf automatically generated from VICON data using
   VICON BodyBuilder and BodyLanguage model FoxedUp or BRILLIANT.MOD
:root
   order TX TY TZ RX RY RZ
   axis XYZ
   position 0 0 0  
   orientation 0 0 0 
:bonedata
  begin
     id 1 
     name lhipjoint
     direction 0.523584 -0.783993 0.333487 
     length 2.44404 
     axis 0 0 0  XYZ
  end
  begin
     id 2 
     name lfemur
     direction 0.34202 -0.939693 0  
     length 7.29523  
     axis 0 0 20  XYZ
    dof rx ry rz
    limits (-160.0 20.0)
           (-70.0 70.0)
           (-60.0 70.0)
  end
  begin
     id 3 
     name ltibia
     direction 0.34215 -0.939645 0   
     length 7.81194   
     axis 0 0 20   XYZ
    dof rx
    limits (-10.0 170.0)
  end
  begin
     id 4 
     name lfoot
     direction 0.0941847 -0.25877 0.961336   
     length 2.41437   
     axis -90 7.62852e-016 20   XYZ
    dof rx rz
    limits (-45.0 90.0)
           (-70.0 20.0)
  end
  begin
     id 5 
     name ltoes
     direction 1.53526e-011 -4.21768e-011 1   
     length 1.2048   
     axis -90 7.62852e-016 20   XYZ
    dof rx
    limits (-90.0 20.0)
  end
  begin
     id 6 
     name rhipjoint
     direction -0.46599 -0.814191 0.346332   
     length 2.35339  
     axis 0 0 0  XYZ 
  end
  begin
     id 7 
     name rfemur
     direction -0.34202 -0.939693 0   
     length 7.34966   
     axis 0 0 -20   XYZ
    dof rx ry rz
    limits (-160.0 20.0)
           (-70.0 70.0)
           (-70.0 60.0)
  end
  begin
     id 8 
     name rtibia
     direction -0.34202 -0.939693 0   
     length 7.89934   
     axis 0 0 -20   XYZ
    dof rx
    limits (-10.0 170.0)
 end
 begin
     id 9 
     name rfoot
     direction -0.0975468 -0.268008 0.958466   
     length 2.27725  
     axis -90 -7.62852e-016 -20   XYZ
    dof rx rz
    limits (-45.0 90.0)
           (-20.0 70.0)
  end
  begin
     id 10 
     name rtoes
     direction -1.53563e-011 -4.22022e-011 1   
     length 1.13683   
     axis -90 -7.62852e-016 -20   XYZ
    dof rx
    limits (-90.0 20.0)
  end
  begin
     id 11 
     name lowerback
     direction -0.00456414 0.999242 -0.0386661   
     length 2.16968   
     axis 0 0 0   XYZ
    dof rx ry rz
    limits (-20.0 45.0)
           (-30.0 30.0)
           (-30.0 30.0)
  end
  begin
     id 12 
     name upperback
     direction 0.0297078 0.998988 0.0337799   
     length 2.15674   
     axis 0 0 0   XYZ
    dof rx ry rz
    limits (-20.0 45.0)
           (-30.0 30.0)
           (-30.0 30.0)
  end
  begin
     id 13 
     name thorax
     direction 0.0309305 0.998202 0.0513506   
     length 2.16319   
     axis 0 0 0   XYZ
    dof rx ry rz
    limits (-20.0 45.0)
           (-30.0 30.0)
           (-30.0 30.0)
  end
  begin
     id 14 
     name lowerneck
     direction -0.103039 0.983474 0.148872   
     length 1.64318   
     axis 0 0 0   XYZ
    dof rx ry rz
    limits (-20.0 45.0)
           (-30.0 30.0)
           (-30.0 30.0)
  end
  begin
     id 15 
     name upperneck
     direction 0.128124 0.971079 -0.201469   
     length 1.68242   
     axis 0 0 0   XYZ
    dof rx ry rz
    limits (-20.0 45.0)
           (-30.0 30.0)
           (-30.0 30.0)
  end
  begin
     id 16
     name head
     direction 0.0496365 0.994919 -0.0875941  
     length 1.70108  
     axis 0 0 0   XYZ
    dof rx ry rz
    limits (-20.0 45.0)
           (-30.0 30.0)
           (-30.0 30.0)
  end
  begin
     id 17 
     name lclavicle
     direction 0.887148 0.430222 -0.166967  
     length 3.25763  
     axis 0 0 0   XYZ
    dof ry rz
    limits (-20.0 10.0)
           (0.0 20.0)
  end
  begin
     id 18 
     name lhumerus
     direction 1 -4.48962e-011 1.92156e-027   
     length 5.10755   
     axis 180 -30 -90   XYZ
    dof rx ry rz
    limits (-60.0 90.0)
           (-90.0 90.0)
           (-90.0 90.0)
  end
  begin
     id 19
     name lradius
     direction 1 -4.48958e-011 7.10963e-027   
     length 3.36253   
     axis 180 -30 -90   XYZ
    dof rx
    limits (-10.0 170.0)
  end
  begin
     id 20
     name lwrist
     direction 1 -4.48946e-011 1.82396e-026   
     length 1.68127   
     axis -1.15222e-014 90 90   XYZ
    dof ry
    limits (-180.0 0.0)
 end
  begin
     id 21 
     name lhand
     direction 1 -4.48919e-011 3.64759e-026   
     length 0.619088   
     axis -2.32787e-014 90 90   XYZ
    dof rx rz
    limits (-90.0 90.0)
           (-45.0 45.0)
  end
  begin
     id 22 
     name lfingers
     direction 1 -4.49012e-011 7.29744e-026   
     length 0.499125   
     axis -4.6558e-014 90 90   XYZ
    dof rx
    limits (0.0 90.0)
  end
  begin
     id 23
     name lthumb
     direction 0.707107 -6.35028e-011 0.707107   
     length 0.716646   
     axis -90 45 3.78391e-014   XYZ
    dof rx rz
    limits (-45.0 45.0)
           (-45.0 45.0)
  end
  begin
     id 24 
     name rclavicle
     direction -0.82886 0.533198 -0.169384   
     length 3.20647  
     axis 0 0 0   XYZ 
    dof ry rz
    limits (-10.0 20.0)
           (-20.0 0.0)
  end
  begin
     id 25 
     name rhumerus
     direction -1 -4.48973e-011 3.06863e-027  
     length 5.27387   
     axis 180 30 90   XYZ
    dof rx ry rz
    limits (-90.0 60.0)
           (-90.0 90.0)
           (-90.0 90.0)
  end
  begin
     id 26 
     name rradius
     direction -1 -4.48988e-011 9.4797e-027   
     length 3.40144   
     axis 180 30 90   XYZ
    dof rx
    limits (-10.0 170.0)
  end
  begin
     id 27 
     name rwrist
     direction -1 -4.48897e-011 1.82366e-026   
     length 1.70072   
     axis -1.15222e-014 -90 -90   XYZ
    dof ry
    limits (-180.0 0.0)
  end
  begin
     id 28
     name rhand
     direction -1 -4.48965e-011 3.64815e-026   
     length 0.742821   
     axis -2.32787e-014 -90 -90   XYZ
    dof rx rz
    limits (-90.0 90.0)
           (-45.0 45.0)
  end
  begin
     id 29
     name rfingers
     direction -1 -4.49016e-011 7.29754e-026   
     length 0.598881   
     axis -4.6558e-014 -90 -90   XYZ
    dof rx
    limits (0.0 90.0)
  end
  begin
     id 30
     name rthumb
     direction -0.707107 -6.3488e-011 0.707107   
     length 0.859877   
     axis -90 -45 -3.78391e-014   XYZ
    dof rx rz
    limits (-45.0 45.0)
           (-45.0 45.0)
  end
:hierarchy
  begin
    root lhipjoint rhipjoint lowerback
    lhipjoint lfemur
    lfemur ltibia
    ltibia lfoot
    lfoot ltoes
    rhipjoint rfemur
    rfemur rtibia
    rtibia rfoot
    rfoot rtoes
    lowerback upperback
    upperback thorax
    thorax lowerneck lclavicle rclavicle
    lowerneck upperneck
    upperneck head
    lclavicle lhumerus
    lhumerus lradius
    lradius lwrist
    lwrist lhand lthumb
    lhand lfingers
    rclavicle rhumerus
    rhumerus rradius
    rradius rwrist
    rwrist rhand rthumb
    rhand rfingers
  end

#!OML:ASF F:\Work\Patient Classification 1\justin\Session 1\justin.ASF
:FULLY-SPECIFIED
:DEGREES
1568
root 0.899122 18.4621 -4.47011 3.88043 1.21001 -2.92353
lowerback 8.83779 -1.28953 0.292348
upperback -0.629045 -1.49703 3.40726
thorax -5.53765 -0.695274 3.60264
lowerneck -18.0514 -4.13153 -13.8645
upperneck 17.4731 -4.50105 12.2379
head 9.05513 -1.77637 5.96781
rclavicle 2.12203e-014 -3.65764e-014
rhumerus 15.9131 30.1778 -63.0508
rradius 92.3785
rwrist 22.6061
rhand -5.31145 13.4326
rfingers 7.12502
rthumb 20.4941 -15.5058
lclavicle 2.12203e-014 -3.65764e-014
lhumerus 47.0133 -16.7055 67.004
lradius 40.441
lwrist -17.5262
lhand -3.62952 26.384
lfingers 7.12502
lthumb 22.1097 55.1399
rfemur -6.75071 1.19496 22.7362
rtibia 18.1825
rfoot -11.669 -5.73098
rtoes -14.4414
lfemur -6.18119 3.0908 -16.753
ltibia 17.3297
lfoot -10.6193 0.139417
ltoes -14.3699
1569
root 0.892807 18.4618 -4.46893 3.8735 1.378 -3.0181
lowerback 8.37323 -1.27146 0.354377
upperback -0.31358 -1.48388 3.46471
thorax -4.94509 -0.698583 3.60081
lowerneck -18.122 -4.2391 -13.9597
upperneck 17.1622 -4.59955 12.2783
head 8.98027 -1.82019 5.97516
rclavicle 5.96354e-016 7.95139e-015
rhumerus 15.79 30.3289 -63.2145
rradius 91.4315
rwrist 22.3456
rhand -5.26497 11.0298
rfingers 7.12502
rthumb 20.5388 -17.9038
lclavicle 5.96354e-016 7.95139e-015
lhumerus 48.215 -16.3971 66.3733
lradius 41.0907
lwrist -17.2965
lhand -3.69331 26.378
lfingers 7.12502
lthumb 22.0484 55.1411
rfemur -6.72045 1.17031 22.8832
rtibia 18.1687
rfoot -11.6064 -5.88116
rtoes -16.1934
lfemur -6.22747 3.0458 -16.6036
ltibia 17.402
lfoot -10.7086 0.00225874
ltoes -14.2195
1570
root 0.889515 18.4596 -4.46838 3.8167 1.55346 -3.0663
lowerback 8.18883 -1.2599 0.398932
upperback -0.157761 -1.47188 3.49397
thorax -4.67929 -0.697245 3.59423
lowerneck -18.0954 -4.31423 -13.9972
upperneck 17.0268 -4.68798 12.2833
head 8.94377 -1.86334 5.96677
rclavicle -2.00773e-014 9.54166e-015
rhumerus 15.3543 30.9386 -63.4184
rradius 91.3258
rwrist 20.551
rhand -1.51886 4.81754
rfingers 7.12502
rthumb 24.1348 -23.6843
lclavicle -2.00773e-014 9.54166e-015
lhumerus 49.0732 -16.1625 65.8766
lradius 42.2168
lwrist -16.8653
lhand -3.28326 26.8606
lfingers 7.12502
lthumb 22.4421 55.5767
rfemur -6.64507 0.908764 22.9506
rtibia 18.162
rfoot -11.6568 -5.868
rtoes -14.3826
lfemur -6.23528 2.97735 -16.5301
ltibia 17.4861
lfoot -10.748 -0.0919752
ltoes -14.2363
1571
root 0.890112 18.458 -4.46582 3.78812 1.64604 -3.07735
lowerback 8.07321 -1.21083 0.447748
upperback -0.0937478 -1.40697 3.48635
thorax -4.55246 -0.667973 3.54538
lowerneck -17.9709 -4.39608 -14.0225
upperneck 16.9456 -4.81243 12.3136
head 8.91374 -1.92347 5.9622
rclavicle -4.87022e-015 1.59028e-014
rhumerus 14.9644 31.9485 -63.4884
rradius 91.9622
rwrist 17.8449
rhand -0.953993 0.446996
rfingers 7.12502
rthumb 24.6763 -27.9819
lclavicle -4.87022e-015 1.59028e-014
lhumerus 49.7335 -16.0092 65.5499
lradius 43.4538
lwrist -16.2862
lhand -3.05406 27.5323
lfingers 7.12502
lthumb 22.6621 56.2217
rfemur -6.59975 0.63485 22.9465
rtibia 18.1675
rfoot -11.8499 -5.71575
rtoes -13.9821
lfemur -6.25553 2.96635 -16.5215
ltibia 17.5861
lfoot -10.7985 -0.145652
ltoes -14.4461
1572
root 0.883861 18.458 -4.4651 3.78729 1.6179 -3.20152
lowerback 7.94043 -1.10258 0.490075
upperback 0.0155337 -1.26358 3.52931
thorax -4.37194 -0.599792 3.54296
lowerneck -18.0239 -4.48588 -14.0014
upperneck 16.8741 -4.92815 12.3022
head 8.91551 -1.97528 5.93627
rclavicle -1.74931e-014 2.22639e-014
rhumerus 14.9372 32.0976 -63.652
rradius 90.8586
rwrist 17.5943
rhand -1.6206 1.14407
rfingers 7.12502
rthumb 24.0372 -27.3707
lclavicle -1.74931e-014 2.22639e-014
lhumerus 50.3928 -15.7478 65.4153
lradius 44.5562
lwrist -16.1936
lhand -3.15195 27.8348
lfingers 7.12502
lthumb 22.5681 56.5357
rfemur -6.638 0.780598 23.1188
rtibia 18.2326
rfoot -11.9344 -5.83338
rtoes -14.1151
lfemur -6.30826 3.02229 -16.3448
ltibia 17.6502
lfoot -10.8136 -0.194162
ltoes -14.5047
1573
root 0.874073 18.4561 -4.47133 3.80351 1.551 -3.33473
lowerback 7.37021 -0.945686 0.516736
upperback 0.535756 -1.08209 3.58132
thorax -3.52063 -0.52065 3.53485
lowerneck -18.5891 -4.6964 -13.9927
upperneck 16.6132 -5.1234 12.2913
head 8.95761 -2.04809 5.89558
rclavicle -2.97183e-014 3.73715e-014
rhumerus 15.6573 31.8203 -63.418
rradius 89.6635
rwrist 17.3083
rhand -0.716986 0.869339
rfingers 7.12502
rthumb 24.9035 -27.5283
lclavicle -2.97183e-014 3.73715e-014
lhumerus 51.6484 -15.2259 65.2425
lradius 45.6539
lwrist -16.531
lhand -2.97777 27.6979
lfingers 7.12502
lthumb 22.7353 56.3784
rfemur -6.74884 1.08637 23.3197
rtibia 18.3292
rfoot -11.8397 -6.07181
rtoes -14.0634
lfemur -6.39669 3.04867 -16.1466
ltibia 17.6738
lfoot -10.7466 -0.191948
ltoes -14.3582
1574
root 0.871359 18.4528 -4.47692 3.83583 1.62355 -3.29604
lowerback 8.07451 -0.826726 0.459762
upperback -0.0830447 -0.888253 3.60514
thorax -4.5701 -0.409569 3.60227
lowerneck -17.7745 -4.74624 -14.194
upperneck 16.8543 -5.26256 12.2645
head 8.91812 -2.15594 5.90827
rclavicle 1.68967e-015 -3.97569e-015
rhumerus 14.2061 32.3484 -64.0813
rradius 88.5964
rwrist 17.2982
rhand 0.0750146 0.126734
rfingers 7.12502
rthumb 25.6622 -28.1637
lclavicle 1.68967e-015 -3.97569e-015
lhumerus 51.2154 -15.5268 65.5298
lradius 46.8279
lwrist -16.5745
lhand -2.35962 27.3535
lfingers 7.12502
lthumb 23.3284 55.96
rfemur -6.841 1.01871 23.2837
rtibia 18.3926
rfoot -11.7387 -6.07232
rtoes -14.0115
lfemur -6.48659 2.97617 -16.1836
ltibia 17.6993
lfoot -10.6999 -0.188419
ltoes -14.3522
1575
root 0.871189 18.4517 -4.47841 3.83648 1.77851 -3.15557
lowerback 8.21167 -0.717667 0.258995
upperback -0.304244 -0.750119 3.63093
thorax -4.8839 -0.331265 3.73494
lowerneck -17.1543 -4.85058 -14.3943
upperneck 16.8584 -5.43817 12.2508
head 8.83911 -2.27199 5.91419
rclavicle -1.78906e-015 3.02153e-014
rhumerus 13.4113 32.4077 -64.4
rradius 87.0758
rwrist 16.9736
rhand -0.0878417 0.946179
rfingers 7.12502
rthumb 25.5062 -27.3666
lclavicle -1.78906e-015 3.02153e-014
lhumerus 51.3042 -15.6544 65.6153
lradius 47.9569
lwrist -16.4283
lhand -1.71284 27.2791
lfingers 7.12502
lthumb 23.9488 55.8055
rfemur -6.8447 0.770536 23.1206
rtibia 18.4139
rfoot -11.7335 -5.96266
rtoes -13.9329
lfemur -6.53147 2.8469 -16.3442
ltibia 17.741
lfoot -10.7076 -0.190875
ltoes -14.4173
1576
root 0.870999 18.4526 -4.4752 3.7762 1.93888 -3.14884
lowerback 8.4412 -0.610822 0.242937
upperback -0.603088 -0.593645 3.63552
thorax -5.33651 -0.246252 3.74132
lowerneck -16.5466 -4.89259 -14.4275
upperneck 16.9717 -5.56487 12.1663
head 8.78462 -2.36152 5.87691
rclavicle 1.78906e-015 -1.35174e-014
rhumerus 12.9864 32.5194 -64.6815
rradius 85.8714
rwrist 17.3158
rhand 0.709845 0.479309
rfingers 7.12502
rthumb 26.2701 -27.722
lclavicle 1.78906e-015 -1.35174e-014
lhumerus 51.1779 -15.9156 65.7605
lradius 49.0829
lwrist -16.921
lhand -1.45514 27.7711
lfingers 7.12502
lthumb 24.1959 56.2648
rfemur -6.74125 0.508528 23.1094
rtibia 18.3862
rfoot -11.8075 -5.85111
rtoes -13.7144
lfemur -6.51648 2.75086 -16.3428
ltibia 17.7847
lfoot -10.7682 -0.228598
ltoes -14.4908
1577
root 0.869477 18.4525 -4.46937 3.69333 2.04775 -3.27902
lowerback 8.45081 -0.508761 0.396437
upperback -0.675941 -0.437692 3.65837
thorax -5.4293 -0.171724 3.66004
lowerneck -16.2791 -4.94254 -14.554
upperneck 17.0104 -5.66974 12.2922
head 8.77271 -2.41551 5.93194
rclavicle -3.18055e-015 2.38542e-015
rhumerus 12.8286 32.4629 -64.8136
rradius 84.5715
rwrist 17.3533
rhand 0.756522 0.545986
rfingers 7.12502
rthumb 26.3148 -27.6486
lclavicle -3.18055e-015 2.38542e-015
lhumerus 51.2893 -16.0114 65.8867
lradius 50.3106
lwrist -17.4446
lhand -1.52808 28.4531
lfingers 7.12502
lthumb 24.126 56.9561
rfemur -6.57704 0.277321 23.2535
rtibia 18.2955
rfoot -12.081 -5.70239
rtoes -13.3354
lfemur -6.46315 2.72435 -16.1815
ltibia 17.8485
lfoot -10.8476 -0.303786
ltoes -14.5754
1578
root 0.864312 18.4527 -4.46477 3.60317 2.17265 -3.32279
lowerback 8.30751 -0.436068 0.436939
upperback -0.457054 -0.345132 3.7052
thorax -5.12415 -0.130746 3.6674
lowerneck -16.6378 -5.12538 -14.8855
upperneck 17.053 -5.84178 12.5324
head 8.8973 -2.48388 6.05193
rclavicle -1.31198e-014 -1.43125e-014
rhumerus 13.244 32.1295 -64.6668
rradius 83.0429
rwrist 17.6203
rhand 0.656321 1.18751
rfingers 7.12502
rthumb 26.2189 -27.0214
lclavicle -1.31198e-014 -1.43125e-014
lhumerus 51.8279 -15.818 65.8908
lradius 51.6309
lwrist -17.0682
lhand -1.46959 28.9242
lfingers 7.12502
lthumb 24.182 57.4197
rfemur -6.38477 0.153728 23.3182
rtibia 18.1531
rfoot -11.9227 -5.64569
rtoes -13.8115
lfemur -6.40191 2.66304 -16.1029
ltibia 17.9573
lfoot -10.9275 -0.374641
ltoes -14.6822
1579
root 0.860436 18.453 -4.46512 3.54014 2.38043 -3.33401
lowerback 8.23764 -0.392602 0.458182
upperback -0.257504 -0.292039 3.73643
thorax -4.8789 -0.108131 3.67664
lowerneck -17.0797 -5.32635 -15.1084
upperneck 17.1474 -6.03317 12.659
head 9.05174 -2.56249 6.11034
rclavicle 4.47266e-015 2.38542e-015
rhumerus 13.5672 31.7279 -64.604
rradius 81.4823
rwrist 18.0077
rhand 0.518793 1.6326
rfingers 7.12502
rthumb 26.0872 -26.5958
lclavicle 4.47266e-015 2.38542e-015
lhumerus 52.4126 -15.6997 65.7952
lradius 53.0576
lwrist -16.159
lhand -1.38401 29.5937
lfingers 7.12502
lthumb 24.2641 58.0783
rfemur -6.23524 -0.0387753 23.3392
rtibia 18.0124
rfoot -12.0995 -5.63156
rtoes -13.5677
lfemur -6.42315 2.50705 -16.0698
ltibia 18.0883
lfoot -10.9683 -0.432828
ltoes -14.5616
1580
root 0.855351 18.452 -4.4693 3.51849 2.50918 -3.43554
lowerback 8.30309 -0.301449 0.569647
upperback -0.286798 -0.157104 3.72456
thorax -4.95495 -0.0433863 3.58587
lowerneck -17.0751 -5.40536 -15.2074
upperneck 17.2641 -6.16914 12.8491
head 9.12224 -2.61509 6.18147
rclavicle -2.98177e-015 -1.11319e-014
rhumerus 13.5087 31.4687 -64.8089
rradius 80.0462
rwrist 17.9271
rhand 0.0622458 1.72427
rfingers 7.12502
rthumb 25.65 -26.5679
lclavicle -2.98177e-015 -1.11319e-014
lhumerus 52.6635 -15.8828 65.6459
lradius 54.4791
lwrist -15.3873
lhand -1.55149 30.1539
lfingers 7.12502
lthumb 24.1035 58.6599
rfemur -6.15563 -0.180473 23.465
rtibia 17.8798
rfoot -11.7581 -5.6156
rtoes -14.0235
lfemur -6.51605 2.40296 -15.943
ltibia 18.2106
lfoot -10.9468 -0.462031
ltoes -14.2348
1581
root 0.841986 18.45 -4.47218 3.45811 2.61318 -3.53066
lowerback 8.49534 -0.148367 0.608475
upperback -0.406416 0.0589945 3.68817
thorax -5.20128 0.0647629 3.50293
lowerneck -16.9439 -5.48631 -15.217
upperneck 17.4095 -6.34746 13.0097
head 9.18249 -2.68865 6.222
rclavicle 8.64713e-015 4.85035e-014
rhumerus 13.4128 31.2188 -65.0231
rradius 78.6296
rwrist 17.3969
rhand -0.536581 1.80146
rfingers 7.12502
rthumb 25.0763 -26.5721
lclavicle 8.64713e-015 4.85035e-014
lhumerus 52.7476 -16.1957 65.645
lradius 55.7818
lwrist -15.1961
lhand -1.52769 30.1275
lfingers 7.12502
lthumb 24.1263 58.6305
rfemur -6.0306 -0.0471163 23.6397
rtibia 17.7268
rfoot -11.6552 -5.81882
rtoes -13.8954
lfemur -6.57799 2.338 -15.7804
ltibia 18.3462
lfoot -10.9147 -0.495113
ltoes -14.1646
